<svg version="1.1" x="0px" y="0px" viewBox="0 0 64 64">
	<g enable-background="new">
		<g>
			<g>
				<path d="M36.963,22.048c0.092-3.345-0.525-8.003,0.516-9.593c1.901-2.911,9.496-2.154,9.496-2.154s0-6.612,0-10.303
					c-11.982,0-15.904-0.501-20.016,3.675c-3.658,3.715-3.771,11.011-4.072,18.375h-5.872V32.12h5.938
					c-0.002,10.504,0.003,22.016,0,31.884c4.462,0,13.954,0,13.954,0v-32.01c0,0,5.173,0,8.042,0
					c0.626-3.385,1.236-6.036,2.088-9.947L36.963,22.048L36.963,22.048z"/>
			</g>
		</g>
	</g>
</svg>