<svg version="1.1" x="0px" y="0px" viewBox="0 0 530 551" enable-background="new">
<path fill-rule="evenodd" clip-rule="evenodd" fill="#fff" d="M265.427,18C118.856,18,0,136.841,0,283.458
	c0,117.266,76.05,216.756,181.54,251.86c13.271,2.436,18.117-5.76,18.117-12.793c0-6.302-0.231-22.995-0.357-45.146
	c-73.839,16.04-89.418-35.583-89.418-35.583c-12.07-30.664-29.471-38.828-29.471-38.828c-24.101-16.471,1.822-16.137,1.822-16.137
	c26.639,1.879,40.659,27.354,40.659,27.354c23.68,40.564,62.125,28.852,77.25,22.057c2.412-17.153,9.271-28.851,16.853-35.487
	c-58.942-6.697-120.91-29.472-120.91-131.189c0-28.978,10.345-52.673,27.323-71.229c-2.729-6.715-11.839-33.703,2.603-70.25
	c0,0,22.286-7.136,72.994,27.213c21.172-5.889,43.882-8.831,66.455-8.935c22.54,0.104,45.249,3.046,66.453,8.935
	c50.676-34.349,72.923-27.213,72.923-27.213c14.482,36.547,5.371,63.535,2.643,70.25c17.011,18.556,27.283,42.251,27.283,71.229
	c0,101.973-62.063,124.412-121.197,130.982c9.532,8.196,18.023,24.396,18.023,49.157c0,35.487-0.327,64.114-0.327,72.82
	c0,7.097,4.782,15.356,18.252,12.762c105.387-35.169,181.373-134.596,181.373-251.829C530.885,136.841,412.029,18,265.427,18z"></path>
</svg>